# xmcd CD database file
#
# Track frame offsets:
#	150
#	18597
#	41427
#	65535
#	85960
#	104962
#	129042
#	149690
#	170267
#	183987
#	210745
#	238457
#	263485
#	280470
#	303725
#	320032
#
# Disc length: 4490 seconds
#
# Revision: 0
# Processed by: cddbd v1.5.2PL0 Copyright (c) Steve Scherf et al.
# Submitted via: CDex 1.51
#
DISCID=f7118810
DTITLE=Warren Vaché - Warren Plays Warren
DYEAR=1996
DGENRE=Jazz
TTITLE0=This heart of mine
TTITLE1=Would you like to take a walk
TTITLE2=Nagasaki
TTITLE3=Serenade in blue - At last
TTITLE4=I only have eyes for you
TTITLE5=The girlfriend of the whirling dervish
TTITLE6=You're getting to be a habit with me
TTITLE7=Lulu's back in town
TTITLE8=I remember you from somewhere
TTITLE9=Forty-second Street
TTITLE10=September in the rain
TTITLE11=Blues times 2
TTITLE12=An affair to remember
TTITLE13=I had the craziest dream
TTITLE14=Jeepers creepers
TTITLE15=You're getting to be a habit with me (instr.)
EXTD=YEAR: 1996
EXTT0=
EXTT1=
EXTT2=
EXTT3=
EXTT4=
EXTT5=
EXTT6=
EXTT7=
EXTT8=
EXTT9=
EXTT10=
EXTT11=
EXTT12=
EXTT13=
EXTT14=
EXTT15=
PLAYORDER=
